<svg xmlns="http://www.w3.org/2000/svg" width="32" height="32" viewBox="0 0 32 32">
  <g id="instaLogo" transform="translate(-4.281)">
    <path id="パス_3" data-name="パス 3" d="M27.084,0H13.478a9.121,9.121,0,0,0-9.2,9.043V22.957A9.121,9.121,0,0,0,13.478,32H27.084a9.121,9.121,0,0,0,9.2-9.043V9.043A9.121,9.121,0,0,0,27.084,0ZM7.546,9.043a5.889,5.889,0,0,1,5.932-5.833H27.084a5.889,5.889,0,0,1,5.932,5.833V22.957a5.889,5.889,0,0,1-5.932,5.833H13.478a5.889,5.889,0,0,1-5.932-5.833Z"/>
    <path id="パス_4" data-name="パス 4" d="M132.53,140.627a8.242,8.242,0,1,0-8.381-8.241A8.321,8.321,0,0,0,132.53,140.627Zm0-13.913a5.673,5.673,0,1,1-5.769,5.672A5.728,5.728,0,0,1,132.53,126.714Z" transform="translate(-112.249 -116.386)"/>
    <ellipse id="楕円形_1" data-name="楕円形 1" cx="1.878" cy="1.846" rx="1.878" ry="1.846" transform="translate(27.029 5.672)"/>
  </g>
</svg>
