<svg xmlns="http://www.w3.org/2000/svg" width="104" height="104" viewBox="0 0 104 104">
  <g id="グループ_3" data-name="グループ 3" transform="translate(310 295)">
    <g id="グループ_1" data-name="グループ 1" transform="translate(-542.911 -563.257)">
      <path id="パス_1" data-name="パス 1" d="M278.2,328.577v21c0,2.914-.6,6.6-7.115,6.6-1.972,0-4.2-.515-5.4-1.715l-8.229-8.23a6.846,6.846,0,0,1-1.543-4.886V290.858c0-4.372,2.057-6.6,6.943-6.6,3.858,0,5.144,1.286,5.744,1.886l8.058,8.144c.686.686,1.543,1.886,1.543,4.8v9h13.373v-17.23c0-4.8,2.486-6.6,7.029-6.6,1.115,0,3.772.172,5.487,1.8l8.314,8.229c.772.772,1.458,2.057,1.458,4.8v50.492c0,2.829-.514,6.6-7.029,6.6-1.972,0-4.2-.429-5.486-1.715l-8.144-8.144c-.772-.771-1.629-2.143-1.629-4.972V328.577Zm13.373-8.23h-21.6v21c0,3.429-1.029,6.515-6.944,6.6l4.543,4.543a5.454,5.454,0,0,0,3.429.944c4.2,0,4.458-1.543,4.458-3.858V325.833h16.116Zm-21.6-12.259h5.486v-9a3.847,3.847,0,0,0-.943-3.086l-4.543-4.543Zm35.661,33.261c0,3.258-.858,6.515-6.944,6.6l4.543,4.543a5.672,5.672,0,0,0,3.6.944c4.028,0,4.286-1.629,4.286-3.858V299.087c0-1.885-.343-2.485-.943-3.086l-4.543-4.543Z" fill="#fff" stroke="#000" stroke-width="1"/>
    </g>
    <g id="グループ_2" data-name="グループ 2">
      <g id="長方形_2" data-name="長方形 2" transform="translate(-310 -295)" fill="none" stroke="#707070" stroke-width="1">
        <rect width="104" height="104" stroke="none"/>
        <rect x="0.5" y="0.5" width="103" height="103" fill="none"/>
      </g>
    </g>
  </g>
</svg>
